<?xml version="1.0" encoding="UTF-8"?>
<!DOCTYPE svg PUBLIC "-//W3C//DTD SVG 1.1//EN" "http://www.w3.org/Graphics/SVG/1.1/DTD/svg11.dtd">
<svg xmlns="http://www.w3.org/2000/svg" version="1.1" width="5301px" height="972px" style="shape-rendering:geometricPrecision; text-rendering:geometricPrecision; image-rendering:optimizeQuality; fill-rule:evenodd; clip-rule:evenodd" xmlns:xlink="http://www.w3.org/1999/xlink">
<g><path style="opacity:0.995" fill="#fefffe" d="M 4165.5,113.5 C 4208.17,113.5 4250.83,113.5 4293.5,113.5C 4293.5,307.5 4293.5,501.5 4293.5,695.5C 4250.83,695.5 4208.17,695.5 4165.5,695.5C 4165.5,501.5 4165.5,307.5 4165.5,113.5 Z"/></g>
<g><path style="opacity:0.992" fill="#fefffe" d="M 236.5,134.5 C 258.503,134.333 280.503,134.5 302.5,135C 343.128,136.457 381.795,145.79 418.5,163C 461.658,187.418 487.491,224.251 496,273.5C 499.636,293.002 501.136,312.668 500.5,332.5C 459.833,332.5 419.167,332.5 378.5,332.5C 379.985,278.584 354.318,246.751 301.5,237C 268.862,232.283 236.862,234.95 205.5,245C 169.048,261.084 156.881,288.25 169,326.5C 173.565,338.064 181.732,345.898 193.5,350C 205.62,354.113 217.953,357.447 230.5,360C 274.109,367.99 317.775,375.657 361.5,383C 396.801,388.657 430.468,399.323 462.5,415C 495.731,436.299 514.231,466.799 518,506.5C 526.029,600.006 485.529,660.839 396.5,689C 355.281,700.402 313.281,705.569 270.5,704.5C 221.675,706.474 174.675,698.307 129.5,680C 69.3038,650.749 36.1371,602.582 30,535.5C 28.9459,525.526 28.4459,515.526 28.5,505.5C 69.5,505.5 110.5,505.5 151.5,505.5C 151.592,522.313 154.426,538.647 160,554.5C 168.62,573.119 182.453,586.286 201.5,594C 246.374,607.645 291.374,607.979 336.5,595C 372.693,581.785 386.859,556.285 379,518.5C 374.593,505.092 365.759,495.926 352.5,491C 343.001,487.723 333.335,485.056 323.5,483C 271.348,474.074 219.181,465.24 167,456.5C 138.478,451.247 111.312,442.081 85.5,429C 50.0927,406.389 30.926,373.889 28,331.5C 21.711,246.868 57.5443,188.368 135.5,156C 168.272,144.014 201.939,136.847 236.5,134.5 Z"/></g>
<g><path style="opacity:0.994" fill="#fefffe" d="M 2613.5,142.5 C 2688.5,142.333 2763.5,142.5 2838.5,143C 2886.59,142.514 2932.92,151.181 2977.5,169C 3054.44,204.599 3100.28,264.433 3115,348.5C 3122.33,395.834 3122.33,443.168 3115,490.5C 3093.35,605.48 3024.85,672.646 2909.5,692C 2900.53,693.293 2891.53,694.293 2882.5,695C 2792.83,695.5 2703.17,695.667 2613.5,695.5C 2613.5,511.167 2613.5,326.833 2613.5,142.5 Z M 2751.5,252.5 C 2790.53,252.049 2829.53,252.549 2868.5,254C 2917.15,260.895 2950.65,287.061 2969,332.5C 2988.31,390.477 2988.31,448.477 2969,506.5C 2950.98,553.183 2917.15,579.683 2867.5,586C 2828.83,586.5 2790.17,586.667 2751.5,586.5C 2751.5,475.167 2751.5,363.833 2751.5,252.5 Z"/></g>
<g><path style="opacity:0.994" fill="#fefffe" d="M 2315.5,187.5 C 2350.83,187.5 2386.17,187.5 2421.5,187.5C 2421.5,218.5 2421.5,249.5 2421.5,280.5C 2465.5,280.5 2509.5,280.5 2553.5,280.5C 2553.5,313.833 2553.5,347.167 2553.5,380.5C 2509.5,380.5 2465.5,380.5 2421.5,380.5C 2421.33,439.501 2421.5,498.501 2422,557.5C 2425.5,584.662 2441,599.162 2468.5,601C 2495.7,603.154 2522.7,601.654 2549.5,596.5C 2549.83,629.073 2549.5,661.573 2548.5,694C 2500.35,704.104 2452.01,705.104 2403.5,697C 2337.28,683.784 2300.78,643.617 2294,576.5C 2293.5,511.168 2293.33,445.834 2293.5,380.5C 2272.83,380.5 2252.17,380.5 2231.5,380.5C 2231.5,347.167 2231.5,313.833 2231.5,280.5C 2251.17,280.667 2270.84,280.5 2290.5,280C 2298.89,277.274 2304.22,271.608 2306.5,263C 2310.56,237.974 2313.56,212.808 2315.5,187.5 Z"/></g>
<g><path style="opacity:0.899" fill="#fefffe" d="M 4730.5,195.5 C 4735.96,200.464 4741.3,205.63 4746.5,211C 4753.22,217.573 4761.22,219.906 4770.5,218C 4779.68,215.078 4788.34,211.078 4796.5,206C 4797.5,205.333 4798.5,205.333 4799.5,206C 4793.24,211.383 4787.07,216.883 4781,222.5C 4778.15,226.204 4775.81,230.204 4774,234.5C 4773.34,238.572 4773.68,242.572 4775,246.5C 4777.89,253.942 4781.55,260.942 4786,267.5C 4786.67,268.5 4786.67,269.5 4786,270.5C 4780.5,265 4775,259.5 4769.5,254C 4761.02,247.045 4751.69,245.712 4741.5,250C 4733.64,253.179 4726.14,257.013 4719,261.5C 4718.33,260.833 4718.33,260.167 4719,259.5C 4726.02,253.476 4732.69,247.143 4739,240.5C 4745.34,231.964 4745.67,222.964 4740,213.5C 4736.55,207.604 4733.39,201.604 4730.5,195.5 Z"/></g>
<g><path style="opacity:0.98" fill="#fefffe" d="M 4753.5,264.5 C 4754.59,271.477 4755.26,278.643 4755.5,286C 4754.92,308.761 4753.26,331.428 4750.5,354C 4800.57,417.804 4810.73,487.638 4781,563.5C 4750.12,628.712 4699.95,671.212 4630.5,691C 4616.3,694.923 4601.97,697.09 4587.5,697.5C 4654.33,612.851 4702.5,518.184 4732,413.5C 4734.65,404.235 4736.65,394.902 4738,385.5C 4707.08,470.063 4662.42,546.063 4604,613.5C 4584.94,633.904 4564.11,652.071 4541.5,668C 4528.05,676.308 4513.88,683.141 4499,688.5C 4483.15,683.214 4467.98,676.381 4453.5,668C 4452.17,667.333 4452.17,666.667 4453.5,666C 4485.27,649.559 4514.27,629.225 4540.5,605C 4626.56,522.236 4692.06,425.402 4737,314.5C 4743.4,298.119 4748.9,281.452 4753.5,264.5 Z"/></g>
<g><path style="opacity:0.994" fill="#fefffe" d="M 841.5,273.5 C 866.382,273.369 890.382,277.869 913.5,287C 954.085,305.639 977.585,337.139 984,381.5C 1003.47,309.407 1050.81,273.407 1126,273.5C 1207.33,275.164 1253.99,316.164 1266,396.5C 1267.48,496.145 1267.98,595.812 1267.5,695.5C 1224.83,695.5 1182.17,695.5 1139.5,695.5C 1139.67,612.499 1139.5,529.499 1139,446.5C 1135.29,404.792 1112.63,382.792 1071,380.5C 1030.06,383.428 1004.06,404.762 993,444.5C 989.703,456.282 987.703,468.282 987,480.5C 986.5,552.166 986.333,623.833 986.5,695.5C 943.833,695.5 901.167,695.5 858.5,695.5C 858.667,615.833 858.5,536.166 858,456.5C 856.13,402.287 828.297,377.453 774.5,382C 752.404,386.441 735.571,398.274 724,417.5C 712.861,437.72 706.861,459.387 706,482.5C 705.5,553.499 705.333,624.499 705.5,695.5C 662.833,695.5 620.167,695.5 577.5,695.5C 577.5,557.167 577.5,418.833 577.5,280.5C 620.167,280.5 662.833,280.5 705.5,280.5C 704,315.167 702.833,349.834 702,384.5C 721.889,313.753 768.389,276.753 841.5,273.5 Z"/></g>
<g><path style="opacity:0.992" fill="#fefffe" d="M 1529.5,273.5 C 1570.09,272.608 1609.43,279.108 1647.5,293C 1704.97,317.04 1736.8,360.207 1743,422.5C 1743.5,513.833 1743.67,605.166 1743.5,696.5C 1700.83,696.5 1658.17,696.5 1615.5,696.5C 1618.74,669.25 1620.57,641.917 1621,614.5C 1611.32,655.843 1586.16,682.676 1545.5,695C 1506.03,705.555 1466.36,706.222 1426.5,697C 1347.81,678.101 1313.97,628.601 1325,548.5C 1333.81,512.72 1355.31,487.887 1389.5,474C 1411.66,465.169 1434.66,460.169 1458.5,459C 1510.83,458.5 1563.17,458.333 1615.5,458.5C 1624.92,392.429 1596.42,360.096 1530,361.5C 1508.74,360.356 1489.24,365.523 1471.5,377C 1459.87,386.938 1453.87,399.605 1453.5,415C 1454.43,420.785 1454.77,426.618 1454.5,432.5C 1415.17,432.5 1375.83,432.5 1336.5,432.5C 1327.75,367.14 1353.42,321.307 1413.5,295C 1450.95,280.631 1489.62,273.464 1529.5,273.5 Z M 1491.5,527.5 C 1532.83,527.5 1574.17,527.5 1615.5,527.5C 1617.27,568.823 1598.6,595.99 1559.5,609C 1532.73,616.337 1505.73,617.337 1478.5,612C 1464.8,609.078 1453.64,602.245 1445,591.5C 1430.83,562.333 1439,542.166 1469.5,531C 1476.89,529.302 1484.23,528.135 1491.5,527.5 Z"/></g>
<g><path style="opacity:0.992" fill="#fefffe" d="M 2067.5,273.5 C 2132.09,272.634 2174.59,302.634 2195,363.5C 2201.74,387.87 2204.91,412.704 2204.5,438C 2203.81,465.202 2202.48,492.369 2200.5,519.5C 2161.5,519.5 2122.5,519.5 2083.5,519.5C 2084.7,501.513 2085.7,483.513 2086.5,465.5C 2086.86,445.15 2082.7,425.817 2074,407.5C 2061.88,388.771 2044.55,379.771 2022,380.5C 1988.94,381.597 1964.61,396.597 1949,425.5C 1939.68,444.797 1934.01,465.13 1932,486.5C 1930.54,556.15 1930.04,625.817 1930.5,695.5C 1887.83,695.5 1845.17,695.5 1802.5,695.5C 1802.5,557.167 1802.5,418.833 1802.5,280.5C 1845.17,280.5 1887.83,280.5 1930.5,280.5C 1928.72,319.837 1927.22,359.171 1926,398.5C 1931.74,370.262 1943.07,344.595 1960,321.5C 1979.68,297.568 2004.85,282.734 2035.5,277C 2046.27,275.354 2056.93,274.188 2067.5,273.5 Z"/></g>
<g><path style="opacity:0.993" fill="#fefffe" d="M 3368.5,274.5 C 3409.49,270.93 3449.16,276.43 3487.5,291C 3545.4,317.895 3579.23,363.062 3589,426.5C 3590.28,434.465 3591.28,442.465 3592,450.5C 3592.5,471.164 3592.67,491.831 3592.5,512.5C 3494.5,512.5 3396.5,512.5 3298.5,512.5C 3303.77,582.607 3341.44,614.774 3411.5,609C 3430.53,607.773 3447.53,601.44 3462.5,590C 3472.92,579.322 3478.59,566.489 3479.5,551.5C 3517.17,551.5 3554.83,551.5 3592.5,551.5C 3591.19,605.912 3567.19,646.745 3520.5,674C 3480.37,694.66 3437.71,704.16 3392.5,702.5C 3346.89,703.848 3303.89,694.014 3263.5,673C 3208.84,639.579 3178.01,590.746 3171,526.5C 3165.17,479.994 3170.83,434.994 3188,391.5C 3212.23,338.277 3252.4,303.111 3308.5,286C 3328.29,280.316 3348.29,276.483 3368.5,274.5 Z M 3379.5,367.5 C 3399.28,365.926 3418.62,368.093 3437.5,374C 3468.16,387.243 3482.16,410.743 3479.5,444.5C 3420.16,444.833 3360.83,444.5 3301.5,443.5C 3305.18,420.9 3315.18,401.733 3331.5,386C 3345.83,375.391 3361.83,369.224 3379.5,367.5 Z"/></g>
<g><path style="opacity:0.992" fill="#fefffe" d="M 3896.5,274.5 C 3941.46,270.59 3983.46,279.757 4022.5,302C 4061.8,328.335 4087.63,364.502 4100,410.5C 4113.53,467.929 4110.86,524.596 4092,580.5C 4064.86,651.974 4013.36,692.474 3937.5,702C 3905.33,705.13 3874,701.463 3843.5,691C 3811.79,678.623 3789.29,656.79 3776,625.5C 3776.16,642.505 3776.82,659.505 3778,676.5C 3778.5,738.499 3778.67,800.499 3778.5,862.5C 3735.83,862.5 3693.17,862.5 3650.5,862.5C 3650.5,668.833 3650.5,475.167 3650.5,281.5C 3693.17,281.5 3735.83,281.5 3778.5,281.5C 3778.07,308.513 3777.57,335.513 3777,362.5C 3793.13,317.373 3824.63,289.54 3871.5,279C 3879.94,277.262 3888.27,275.762 3896.5,274.5 Z M 3871.5,372.5 C 3923.84,369.045 3958.34,392.045 3975,441.5C 3985.82,482.352 3981.82,521.685 3963,559.5C 3941.96,593.433 3911.46,608.266 3871.5,604C 3837.3,601.168 3810.8,585.668 3792,557.5C 3782.06,538.587 3777.56,518.42 3778.5,497C 3777.27,467.733 3784.11,440.566 3799,415.5C 3816.84,390.499 3841,376.166 3871.5,372.5 Z"/></g>
<g><path style="opacity:0.993" fill="#fefffe" d="M 4563.5,280.5 C 4619.17,276.581 4669.84,290.415 4715.5,322C 4716.5,323 4717.5,324 4718.5,325C 4682.33,390.862 4637.33,450.195 4583.5,503C 4551.82,533.673 4516.16,558.673 4476.5,578C 4459.3,585.632 4441.3,589.799 4422.5,590.5C 4398.43,590.716 4379.6,581.05 4366,561.5C 4341.31,473.594 4362.47,398.76 4429.5,337C 4468.45,304.696 4513.11,285.863 4563.5,280.5 Z"/></g>
<g><path style="opacity:0.992" fill="#fefffe" d="M 4812.5,281.5 C 4861.5,281.167 4910.5,281.5 4959.5,282.5C 4994.72,376.983 5030.22,471.317 5066,565.5C 5098.2,471.241 5130.2,376.908 5162,282.5C 5203.09,281.503 5244.26,281.17 5285.5,281.5C 5234.17,428.654 5182.34,575.654 5130,722.5C 5117.15,758.222 5099.15,790.889 5076,820.5C 5044.11,856.099 5004.11,873.433 4956,872.5C 4928.99,872.395 4902.49,868.728 4876.5,861.5C 4876.5,829.5 4876.5,797.5 4876.5,765.5C 4893.95,769.39 4911.62,771.723 4929.5,772.5C 4956.43,773.121 4976.93,762.121 4991,739.5C 4999.05,725.559 5005.89,711.059 5011.5,696C 5002.15,695.832 4992.82,695.332 4983.5,694.5C 4925.9,557.04 4868.9,419.373 4812.5,281.5 Z"/></g>
</svg>
